<?xml version="1.0" standalone="no"?><svg xmlns="http://www.w3.org/2000/svg" viewBox="0 0 1440 320"><path fill="#0099ff" fill-opacity="1" d="M0,96L24,106.7C48,117,96,139,144,170.7C192,203,240,245,288,245.3C336,245,384,203,432,186.7C480,171,528,181,576,202.7C624,224,672,256,720,229.3C768,203,816,117,864,85.3C912,53,960,75,1008,112C1056,149,1104,203,1152,229.3C1200,256,1248,256,1296,240C1344,224,1392,192,1416,176L1440,160L1440,320L1416,320C1392,320,1344,320,1296,320C1248,320,1200,320,1152,320C1104,320,1056,320,1008,320C960,320,912,320,864,320C816,320,768,320,720,320C672,320,624,320,576,320C528,320,480,320,432,320C384,320,336,320,288,320C240,320,192,320,144,320C96,320,48,320,24,320L0,320Z"></path></svg>