<?xml version="1.0" standalone="no"?><svg xmlns="http://www.w3.org/2000/svg" viewBox="0 0 1440 320"><path fill="#0099ff" fill-opacity="1" d="M0,128L24,106.7C48,85,96,43,144,37.3C192,32,240,64,288,85.3C336,107,384,117,432,101.3C480,85,528,43,576,48C624,53,672,107,720,133.3C768,160,816,160,864,144C912,128,960,96,1008,122.7C1056,149,1104,235,1152,250.7C1200,267,1248,213,1296,176C1344,139,1392,117,1416,106.7L1440,96L1440,320L1416,320C1392,320,1344,320,1296,320C1248,320,1200,320,1152,320C1104,320,1056,320,1008,320C960,320,912,320,864,320C816,320,768,320,720,320C672,320,624,320,576,320C528,320,480,320,432,320C384,320,336,320,288,320C240,320,192,320,144,320C96,320,48,320,24,320L0,320Z"></path></svg>