<svg xmlns="http://www.w3.org/2000/svg" viewBox="0 0 1440 320">
<path fill="#0099ff" fill-opacity="1" d="M0,256L17.1,234.7C34.3,213,69,171,103,181.3C137.1,192,171,256,206,277.3C240,299,274,277,309,261.3C342.9,245,377,235,411,218.7C445.7,203,480,181,514,186.7C548.6,192,583,224,617,245.3C651.4,267,686,277,720,266.7C754.3,256,789,224,823,192C857.1,160,891,128,926,128C960,128,994,160,1029,160C1062.9,160,1097,128,1131,128C1165.7,128,1200,160,1234,165.3C1268.6,171,1303,149,1337,133.3C1371.4,117,1406,107,1423,101.3L1440,96L1440,320L1422.9,320C1405.7,320,1371,320,1337,320C1302.9,320,1269,320,1234,320C1200,320,1166,320,1131,320C1097.1,320,1063,320,1029,320C994.3,320,960,320,926,320C891.4,320,857,320,823,320C788.6,320,754,320,720,320C685.7,320,651,320,617,320C582.9,320,549,320,514,320C480,320,446,320,411,320C377.1,320,343,320,309,320C274.3,320,240,320,206,320C171.4,320,137,320,103,320C68.6,320,34,320,17,320L0,320Z">
</path>
</svg>